<?xml version="1.0" standalone="no"?>
<!DOCTYPE svg PUBLIC "-//W3C//DTD SVG 20010904//EN"
 "http://www.w3.org/TR/2001/REC-SVG-20010904/DTD/svg10.dtd">
<svg version="1.0" xmlns="http://www.w3.org/2000/svg"
 width="512.000000pt" height="512.000000pt" viewBox="0 0 512.000000 512.000000"
 preserveAspectRatio="xMidYMid meet">

<g transform="translate(0.000000,512.000000) scale(0.100000,-0.100000)"
fill="#000000" stroke="none">
<path d="M2505 4935 l-25 -24 0 -576 0 -575 80 0 80 0 0 270 0 271 93 -50
c137 -73 184 -86 307 -85 121 0 175 17 281 86 71 46 133 68 191 68 28 0 46 7
63 25 l25 24 0 271 0 271 -25 24 c-53 54 -214 18 -354 -78 -120 -82 -259 -75
-430 23 -142 81 -242 100 -286 55z"/>
<path d="M1838 3169 l-718 -491 0 -1179 0 -1179 280 0 280 0 0 554 c0 450 3
570 15 641 72 414 444 725 865 725 421 0 793 -311 865 -725 12 -71 15 -190 15
-641 l0 -554 280 0 280 0 0 1179 0 1179 -712 487 c-391 268 -716 489 -722 491
-6 2 -334 -217 -728 -487z m937 166 c23 -22 25 -32 25 -120 l0 -95 95 0 c88 0
98 -2 120 -25 25 -24 25 -26 25 -215 0 -189 0 -191 -25 -215 -22 -23 -32 -25
-120 -25 l-95 0 0 -95 c0 -88 -2 -98 -25 -120 -24 -25 -26 -25 -215 -25 -189
0 -191 0 -215 25 -23 22 -25 32 -25 120 l0 95 -95 0 c-88 0 -98 2 -120 25 -25
24 -25 26 -25 215 0 189 0 191 25 215 22 23 32 25 120 25 l95 0 0 95 c0 88 2
98 25 120 24 25 26 25 215 25 189 0 191 0 215 -25z"/>
<path d="M2480 3105 c0 -88 -2 -98 -25 -120 -22 -23 -32 -25 -120 -25 l-95 0
0 -80 0 -80 95 0 c88 0 98 -2 120 -25 23 -22 25 -32 25 -120 l0 -95 80 0 80 0
0 95 c0 88 2 98 25 120 22 23 32 25 120 25 l95 0 0 80 0 80 -95 0 c-88 0 -98
2 -120 25 -23 22 -25 32 -25 120 l0 95 -80 0 -80 0 0 -95z"/>
<path d="M2992 3564 c7 -6 258 -180 558 -386 l545 -373 58 2 c127 5 292 70
404 160 53 43 173 169 173 183 0 3 -183 49 -407 103 -225 54 -619 149 -876
211 -258 62 -462 107 -455 100z"/>
<path d="M1243 3361 c-469 -113 -853 -208 -853 -211 0 -3 24 -33 53 -67 133
-157 317 -255 517 -278 l55 -6 550 376 c303 207 554 381 560 386 5 5 2 9 -10
8 -11 -1 -404 -94 -872 -208z"/>
<path d="M320 1832 l0 -1142 320 -160 320 -160 0 1135 c0 900 -3 1136 -12
1139 -7 2 -49 10 -93 18 -172 33 -337 120 -467 246 l-68 65 0 -1141z"/>
<path d="M4740 2915 c-132 -134 -313 -227 -503 -259 l-72 -12 -3 -1137 -2
-1137 320 160 320 160 0 1140 c0 627 -1 1140 -3 1140 -1 0 -27 -25 -57 -55z"/>
<path d="M2374 2055 c-212 -57 -397 -221 -480 -424 -51 -127 -54 -168 -54
-762 l0 -549 168 0 168 0 57 258 c31 141 57 277 57 302 -1 58 -18 103 -70 190
-76 126 -98 248 -66 370 8 30 69 174 136 320 118 257 142 311 137 309 -1 0
-25 -6 -53 -14z"/>
<path d="M2700 2046 c4 -11 63 -140 130 -286 67 -146 128 -290 136 -320 28
-106 11 -237 -43 -330 -114 -197 -113 -184 -37 -525 l58 -265 168 0 168 0 0
549 c0 594 -3 635 -54 762 -85 207 -285 380 -495 428 -38 8 -39 8 -31 -13z"/>
<path d="M2445 1717 c-139 -308 -148 -335 -142 -414 4 -60 12 -77 90 -213 33
-57 57 -149 57 -218 0 -43 -80 -442 -106 -534 -5 -17 10 -18 216 -18 206 0
221 1 216 18 -3 9 -28 123 -56 252 -71 319 -66 382 38 555 92 151 88 190 -53
502 -60 131 -115 255 -124 275 -9 21 -18 38 -21 38 -3 0 -54 -110 -115 -243z"/>
</g>
</svg>
