<?xml version="1.0" standalone="no"?>
<!DOCTYPE svg PUBLIC "-//W3C//DTD SVG 20010904//EN"
 "http://www.w3.org/TR/2001/REC-SVG-20010904/DTD/svg10.dtd">
<svg version="1.0" xmlns="http://www.w3.org/2000/svg"
 width="512.000000pt" height="512.000000pt" viewBox="0 0 512.000000 512.000000"
 preserveAspectRatio="xMidYMid meet">

<g transform="translate(0.000000,512.000000) scale(0.100000,-0.100000)"
fill="#000000" stroke="none">
<path d="M3935 4626 c-79 -35 -115 -128 -81 -209 8 -21 103 -113 269 -262
l255 -230 -1486 -5 c-1480 -6 -1487 -6 -1579 -27 -130 -31 -234 -67 -338 -118
-448 -217 -747 -640 -806 -1138 -20 -176 -7 -238 65 -291 39 -29 133 -29 172
0 56 42 67 66 75 180 15 189 46 309 115 447 116 230 288 400 519 512 123 60
218 89 345 105 58 7 533 10 1502 8 l1416 -3 -255 -230 c-274 -246 -289 -264
-280 -343 11 -102 122 -169 214 -131 50 22 873 767 889 806 18 41 18 85 0 127
-10 23 -145 151 -435 412 -232 209 -434 384 -449 391 -36 16 -90 15 -127 -1z"/>
<path d="M4735 2786 c-64 -29 -95 -84 -95 -169 -1 -135 -42 -312 -105 -445
-62 -131 -127 -224 -225 -322 -178 -178 -401 -287 -653 -320 -55 -7 -546 -10
-1499 -8 l-1416 3 255 229 c274 247 289 265 280 344 -11 102 -122 169 -214
131 -50 -21 -873 -767 -889 -806 -8 -18 -14 -46 -14 -63 0 -17 6 -45 14 -63
16 -39 839 -785 889 -806 92 -38 203 29 214 131 9 79 -6 98 -279 344 l-255
229 1486 5 c1462 6 1487 6 1576 27 448 104 800 373 999 766 96 188 148 394
150 589 1 126 -6 146 -66 191 -34 25 -113 32 -153 13z"/>
</g>
</svg>
