<svg width="683" height="635" viewBox="0 0 683 635" fill="none" xmlns="http://www.w3.org/2000/svg">
<path d="M138.481 2.53339C135.948 3.8667 132.081 7.20007 129.814 9.8667L125.814 14.9334L125.414 84.8L125.014 154.667H86.0811C42.4811 154.667 36.7478 155.467 24.7478 163.067C15.6811 168.933 9.6811 175.867 4.61443 186.667L0.4811 195.333L0.0811 317.2C-0.185567 397.067 0.214433 441.467 1.14777 446.4C4.61443 465.2 17.9478 480.267 36.8811 486.8C43.4144 489.067 48.4811 489.333 84.6144 489.333H125.014L125.414 554.533L125.814 619.733L129.814 624.8C132.081 627.467 135.948 630.8 138.481 632.133C142.881 634.533 150.748 634.667 341.148 634.667C531.548 634.667 539.414 634.533 543.814 632.133C546.348 630.8 550.214 627.467 552.481 624.8L556.481 619.733L556.881 554.533L557.281 489.333H597.681C633.815 489.333 638.881 489.067 645.414 486.8C664.348 480.267 677.681 465.2 681.148 446.4C682.081 441.467 682.481 397.067 682.214 317.2L681.815 195.333L677.681 186.667C672.615 175.867 666.615 168.933 657.548 163.067C645.548 155.467 639.815 154.667 596.214 154.667H557.281L556.881 84.8L556.481 14.9334L552.481 9.8667C550.214 7.20007 546.348 3.8667 543.814 2.53339C539.414 0.133362 531.548 6.10352e-05 341.148 6.10352e-05C150.748 6.10352e-05 142.881 0.133362 138.481 2.53339ZM511.814 100V154.667H341.148H170.481V100V45.3334H341.148H511.814V100ZM542.881 244.533C553.148 248.8 559.414 262 555.948 272.267C554.214 277.6 547.414 284.533 542.081 286.533C539.814 287.467 525.281 288 505.014 288C468.348 288 465.681 287.6 459.414 280.133C452.081 271.333 451.948 259.467 459.148 250.933C465.681 243.067 467.948 242.667 504.881 242.667C530.214 242.667 539.681 243.067 542.881 244.533ZM511.814 496V589.333H341.148H170.481V496V402.667H341.148H511.814V496Z" fill="#FF0000"/>
<path d="M233.814 439.2C228.881 441.467 223.148 447.467 221.281 452.4C217.414 462.4 222.081 474.533 231.814 479.6L237.548 482.667H341.148H444.748L450.481 479.6C460.481 474.267 465.014 461.867 460.614 451.6C458.481 446.4 452.481 440.667 447.414 438.8C441.281 436.4 239.014 436.933 233.814 439.2Z" fill="#FF0000"/>
<path d="M231.814 512.4C221.814 517.733 217.281 530.133 221.681 540.4C223.814 545.6 229.814 551.333 234.881 553.2C240.081 555.2 442.214 555.2 447.414 553.2C452.481 551.333 458.481 545.6 460.614 540.4C465.014 530.133 460.481 517.733 450.481 512.4L444.748 509.333H341.148H237.548L231.814 512.4Z" fill="#FF0000"/>
</svg>
