<?xml version="1.0" standalone="no"?>
<!DOCTYPE svg PUBLIC "-//W3C//DTD SVG 20010904//EN"
 "http://www.w3.org/TR/2001/REC-SVG-20010904/DTD/svg10.dtd">
<svg version="1.0" xmlns="http://www.w3.org/2000/svg"
 width="512.000000pt" height="512.000000pt" viewBox="0 0 512.000000 512.000000"
 preserveAspectRatio="xMidYMid meet">

<g transform="translate(0.000000,512.000000) scale(0.100000,-0.100000)"
fill="#000000" stroke="none">
<path d="M2519 4401 l-24 -19 -3 -384 -3 -384 -56 -75 c-270 -357 -641 -604
-1043 -695 -134 -30 -140 -36 -140 -153 0 -198 -46 -588 -101 -861 -59 -294
-179 -698 -277 -935 l-29 -70 -243 -3 c-271 -3 -280 -5 -280 -68 0 -23 7 -38
26 -53 l27 -21 2194 0 2194 0 24 25 c28 27 32 62 11 91 -13 18 -32 19 -262 24
l-248 5 -34 80 c-54 128 -167 476 -211 650 -94 375 -157 812 -162 1120 -2 99
-16 142 -52 149 -394 80 -709 253 -984 539 -90 94 -200 237 -208 270 -3 12 -4
81 -3 152 l3 130 194 3 c218 3 231 7 231 68 0 26 -13 48 -66 108 l-66 76 66
72 c73 81 84 120 46 158 -19 19 -33 20 -259 20 -220 0 -241 -1 -262 -19z m311
-129 c0 -5 -11 -19 -24 -31 -51 -48 -51 -79 2 -150 l23 -31 -100 0 -101 0 0
110 0 110 100 0 c55 0 100 -4 100 -8z m-340 -1592 l0 -699 -260 -3 c-255 -3
-260 -3 -282 -26 l-23 -23 -3 -554 -2 -555 -460 0 c-253 0 -460 4 -460 8 0 5
22 67 49 138 186 493 307 1069 337 1610 l7 121 114 32 c346 97 705 324 923
584 30 36 56 66 58 66 1 1 2 -314 2 -699z m419 426 c219 -183 503 -329 759
-391 l72 -17 0 -67 c0 -148 41 -506 85 -746 54 -294 158 -668 266 -953 22 -56
39 -104 39 -107 0 -3 -209 -5 -465 -5 l-465 0 0 558 c0 555 0 559 -21 578 -19
17 -42 19 -285 22 l-264 3 0 701 0 701 100 -106 c56 -58 136 -135 179 -171z
m151 -1741 c0 -261 -3 -475 -7 -475 -18 0 -134 115 -186 182 -145 191 -227
428 -227 659 l0 98 143 4 c78 1 172 4 210 5 l67 2 0 -475z m-570 376 c0 -259
-111 -544 -287 -733 -54 -59 -121 -118 -133 -118 -7 0 -10 164 -10 470 l0 470
215 0 215 0 0 -89z m172 -614 c55 -95 105 -162 179 -242 l61 -65 -342 0 -343
0 78 81 c92 97 181 231 232 350 l37 88 28 -71 c15 -38 47 -102 70 -141z"/>
</g>
</svg>
